<svg id="圖層_1" data-name="圖層 1" xmlns="http://www.w3.org/2000/svg" viewBox="0 0 970 940"><defs><style>.cls-1{fill:lime;}.cls-2{fill:red;}</style></defs><title>H5</title><rect class="cls-1" x="0.5" y="249.5" width="690" height="690"/><path d="M856,338v689H167V338H856m1-1H166v691H857V337Z" transform="translate(-166 -88)"/><path class="cls-2" d="M794,771.5a341.5,341.5,0,0,1-241.48-583,341.5,341.5,0,0,1,483,483A339.27,339.27,0,0,1,794,771.5Z" transform="translate(-166 -88)"/><path d="M794,89a339.94,339.94,0,1,1-132.73,26.8A338.86,338.86,0,0,1,794,89m0-1C605.12,88,452,241.12,452,430S605.12,772,794,772s342-153.12,342-342S982.88,88,794,88Z" transform="translate(-166 -88)"/></svg>